# xmcd CD database file
#
# Track frame offsets:
#	150
#	15433
#	32309
#	47785
#	68696
#	80804
#	91277
#	104520
#	118712
#	134022
#	148887
#	171901
#	183081
#	200447
#
# Disc length: 2868 seconds
#
# Revision: 0
# Processed by: cddbd v1.5.1PL0 Copyright (c) Steve Scherf et al.
# Submitted via: CDex 1.51
#
DISCID=c10b320e
DTITLE=Superchief Trio - The Devil Knows Me Better
DYEAR=2005
DGENRE=Blues
TTITLE0=A Matter For The Devil
TTITLE1=Sufferin'
TTITLE2=Black Cat's Tail
TTITLE3=Black Suit Blues
TTITLE4=Dirty Bird
TTITLE5=Hey Uncle Keith
TTITLE6=Thirteenth Day
TTITLE7=Kingfish Boogie
TTITLE8=Big Blue Chair
TTITLE9=Head So Big
TTITLE10=Bop Wah Wah
TTITLE11=You Surprised Me
TTITLE12=Go To Hell
TTITLE13=Say Baby That Way
EXTD=YEAR: 2005
EXTT0=
EXTT1=
EXTT2=
EXTT3=
EXTT4=
EXTT5=
EXTT6=
EXTT7=
EXTT8=
EXTT9=
EXTT10=
EXTT11=
EXTT12=
EXTT13=
PLAYORDER=
